<svg width="42" height="42" viewBox="0 0 42 42" fill="none" xmlns="http://www.w3.org/2000/svg">
<g clip-path="url(#clip0_112_59)">
<path d="M13 32.196H22.1219C26.8574 32.196 29.7029 29.8125 29.7029 25.9065C29.7029 23.0138 27.7053 20.877 24.7049 20.5673V20.3048C26.8889 19.9373 28.5951 17.8635 28.5951 15.5378C28.5951 12.1253 26.0883 9.99902 21.9224 9.99902H13V32.196ZM16.4466 19.3991V12.9233H21.1191C23.6733 12.9233 25.1669 14.1229 25.1669 16.1704C25.1669 18.2756 23.5814 19.3991 20.5364 19.3991H16.4466ZM16.4466 29.2744V22.1213H21.2294C24.4739 22.1213 26.1828 23.3366 26.1828 25.6598C26.1828 28.0118 24.5369 29.2744 21.4289 29.2744H16.4466Z" fill="black"/>
<path d="M0 10.499C0 7.71425 1.10625 5.04353 3.07538 3.0744C5.04451 1.10527 7.71523 -0.000976562 10.5 -0.000976562L31.5 -0.000976562C34.2848 -0.000976562 36.9555 1.10527 38.9246 3.0744C40.8938 5.04353 42 7.71425 42 10.499V31.499C42 34.2838 40.8938 36.9545 38.9246 38.9236C36.9555 40.8928 34.2848 41.999 31.5 41.999H10.5C7.71523 41.999 5.04451 40.8928 3.07538 38.9236C1.10625 36.9545 0 34.2838 0 31.499V10.499ZM10.5 2.62402C8.41142 2.62402 6.40838 3.45371 4.93153 4.93056C3.45468 6.40741 2.625 8.41044 2.625 10.499V31.499C2.625 33.5876 3.45468 35.5906 4.93153 37.0675C6.40838 38.5443 8.41142 39.374 10.5 39.374H31.5C33.5886 39.374 35.5916 38.5443 37.0685 37.0675C38.5453 35.5906 39.375 33.5876 39.375 31.499V10.499C39.375 8.41044 38.5453 6.40741 37.0685 4.93056C35.5916 3.45371 33.5886 2.62402 31.5 2.62402H10.5Z" fill="black"/>
</g>
<defs>
<clipPath id="clip0_112_59">
<rect width="42" height="42" fill="white" transform="translate(0 -0.000976562)"/>
</clipPath>
</defs>
</svg>
