<svg width="56" height="50" viewBox="0 0 56 50" fill="none" xmlns="http://www.w3.org/2000/svg">
<path d="M6 0C4.4087 0 2.88258 0.682512 1.75736 1.89739C0.632141 3.11227 0 4.76 0 6.4781L0 32.4229C0.00793057 34.1354 0.643571 35.7748 1.76793 36.9827C2.89229 38.1905 4.41389 38.8686 6 38.8686H22.5C22.8978 38.8686 23.2794 38.698 23.5607 38.3942C23.842 38.0905 24 37.6786 24 37.2491C24 36.8195 23.842 36.4076 23.5607 36.1039C23.2794 35.8002 22.8978 35.6295 22.5 35.6295H6C5.33963 35.6296 4.69769 35.3945 4.17372 34.9605C3.64975 34.5266 3.27304 33.9181 3.102 33.2294L20.022 21.9867L24 24.5617L45 10.9577V21.0538C45 21.4833 45.158 21.8953 45.4393 22.199C45.7206 22.5027 46.1022 22.6733 46.5 22.6733C46.8978 22.6733 47.2794 22.5027 47.5607 22.199C47.842 21.8953 48 21.4833 48 21.0538V6.4781C48 4.76 47.3679 3.11227 46.2426 1.89739C45.1174 0.682512 43.5913 0 42 0H6ZM17.124 20.108L3 29.4915V10.9577L17.124 20.108ZM3 7.18097V6.4781C3 5.61905 3.31607 4.79518 3.87868 4.18774C4.44129 3.5803 5.20435 3.23905 6 3.23905H42C42.7957 3.23905 43.5587 3.5803 44.1213 4.18774C44.6839 4.79518 45 5.61905 45 6.4781V7.18097L24 20.785L3 7.18097Z" fill="black"/>
<path d="M56 34.7045C56 38.6316 54.3143 42.3979 51.3137 45.1747C48.3131 47.9516 44.2435 49.5116 40 49.5116C35.7565 49.5116 31.6869 47.9516 28.6863 45.1747C25.6857 42.3979 24 38.6316 24 34.7045C24 30.7775 25.6857 27.0112 28.6863 24.2344C31.6869 21.4575 35.7565 19.8975 40 19.8975C44.2435 19.8975 48.3131 21.4575 51.3137 24.2344C54.3143 27.0112 56 30.7775 56 34.7045ZM46.8891 27.6014C46.6316 27.4585 46.3462 27.3641 46.0492 27.3233C45.7522 27.2826 45.4495 27.2964 45.1583 27.364C44.867 27.4316 44.5931 27.5516 44.352 27.7172C44.1109 27.8827 43.9074 28.0907 43.7531 28.329L38.4046 36.5787L35.904 34.2646C35.4748 33.8674 34.8927 33.6442 34.2857 33.6442C33.6787 33.6442 33.0966 33.8674 32.6674 34.2646C32.2382 34.6618 31.9971 35.2005 31.9971 35.7622C31.9971 36.3239 32.2382 36.8626 32.6674 37.2598L36.2057 40.5301C36.574 40.8716 37.0216 41.1308 37.5144 41.2882C38.0073 41.4455 38.5324 41.4967 39.0498 41.438C39.5673 41.3792 40.0635 41.2121 40.5006 40.9492C40.9378 40.6863 41.3044 40.3346 41.5726 39.9209L47.6754 30.5036C47.8298 30.2652 47.9319 30.0011 47.9759 29.7263C48.0199 29.4514 48.005 29.1712 47.9319 28.9017C47.8589 28.6322 47.7292 28.3787 47.5503 28.1555C47.3714 27.9324 47.1467 27.7441 46.8891 27.6014Z" fill="black"/>
</svg>
