<svg width="42" height="42" viewBox="0 0 42 42" fill="none" xmlns="http://www.w3.org/2000/svg">
<g clip-path="url(#clip0_112_67)">
<path d="M21 -0.000976562C15.3011 -0.000976562 14.5845 0.0252734 12.3454 0.125023C10.1062 0.230023 8.58113 0.581773 7.245 1.10152C5.8435 1.62867 4.57404 2.45557 3.52538 3.5244C2.4572 4.5736 1.63041 5.8429 1.1025 7.24402C0.58275 8.57752 0.228375 10.1053 0.126 12.3365C0.02625 14.5809 0 15.2949 0 21.0016C0 26.7031 0.02625 27.4171 0.126 29.6563C0.231 31.8928 0.58275 33.4179 1.1025 34.754C1.64062 36.1348 2.35725 37.3055 3.52538 38.4736C4.69088 39.6418 5.86163 40.361 7.24238 40.8965C8.58113 41.4163 10.1036 41.7706 12.3401 41.873C14.5819 41.9728 15.2959 41.999 21 41.999C26.7041 41.999 27.4155 41.9728 29.6573 41.873C31.8911 41.768 33.4215 41.4163 34.7576 40.8965C36.1582 40.3691 37.4268 39.5422 38.4746 38.4736C39.6427 37.3055 40.3594 36.1348 40.8975 34.754C41.4146 33.4179 41.769 31.8928 41.874 29.6563C41.9737 27.4171 42 26.7031 42 20.999C42 15.2949 41.9737 14.5809 41.874 12.3391C41.769 10.1053 41.4146 8.57752 40.8975 7.24402C40.3697 5.84286 39.5429 4.57355 38.4746 3.5244C37.4263 2.45517 36.1567 1.62822 34.755 1.10152C33.4162 0.581773 31.8885 0.227398 29.6546 0.125023C27.4129 0.0252734 26.7015 -0.000976562 20.9948 -0.000976562H21.0026H21ZM19.1179 3.78427H21.0026C26.6096 3.78427 27.2738 3.80265 29.4866 3.90502C31.5341 3.9969 32.6471 4.34077 33.3874 4.6269C34.3665 5.00752 35.0674 5.46427 35.8024 6.19927C36.5374 6.93427 36.9915 7.63252 37.3721 8.61427C37.6609 9.3519 38.0021 10.4649 38.094 12.5124C38.1964 14.7253 38.2174 15.3894 38.2174 20.9938C38.2174 26.5981 38.1964 27.2649 38.094 29.4778C38.0021 31.5253 37.6583 32.6357 37.3721 33.3759C37.0354 34.2877 36.4981 35.1122 35.7997 35.7883C35.0648 36.5233 34.3665 36.9774 33.3848 37.358C32.6497 37.6468 31.5367 37.988 29.4866 38.0825C27.2738 38.1823 26.6096 38.2059 21.0026 38.2059C15.3956 38.2059 14.7289 38.1823 12.516 38.0825C10.4685 37.988 9.35812 37.6468 8.61788 37.358C7.70569 37.0218 6.88046 36.4854 6.20287 35.7883C5.50397 35.1111 4.96577 34.2859 4.62787 33.3733C4.34175 32.6356 3.99787 31.5226 3.906 29.4751C3.80625 27.2623 3.78525 26.5981 3.78525 20.9885C3.78525 15.3815 3.80625 14.72 3.906 12.5071C4.0005 10.4596 4.34175 9.34665 4.6305 8.6064C5.01113 7.62727 5.46788 6.9264 6.20287 6.1914C6.93787 5.4564 7.63613 5.00227 8.61788 4.62165C9.35812 4.3329 10.4685 3.99165 12.516 3.89715C14.4532 3.8079 15.204 3.78165 19.1179 3.77902V3.78427ZM32.2114 7.27027C31.8804 7.27027 31.5528 7.33546 31.247 7.4621C30.9413 7.58874 30.6635 7.77436 30.4295 8.00836C30.1955 8.24237 30.0098 8.52017 29.8832 8.82591C29.7566 9.13165 29.6914 9.45934 29.6914 9.79027C29.6914 10.1212 29.7566 10.4489 29.8832 10.7546C30.0098 11.0604 30.1955 11.3382 30.4295 11.5722C30.6635 11.8062 30.9413 11.9918 31.247 12.1185C31.5528 12.2451 31.8804 12.3103 32.2114 12.3103C32.8797 12.3103 33.5207 12.0448 33.9933 11.5722C34.4659 11.0996 34.7314 10.4586 34.7314 9.79027C34.7314 9.12193 34.4659 8.48096 33.9933 8.00836C33.5207 7.53577 32.8797 7.27027 32.2114 7.27027ZM21.0026 10.2155C19.5722 10.1932 18.1516 10.4557 16.8236 10.9876C15.4955 11.5196 14.2866 12.3105 13.2671 13.3141C12.2477 14.3178 11.4381 15.5143 10.8855 16.8338C10.3328 18.1534 10.0482 19.5697 10.0482 21.0003C10.0482 22.4309 10.3328 23.8473 10.8855 25.1668C11.4381 26.4864 12.2477 27.6829 13.2671 28.6865C14.2866 29.6902 15.4955 30.4811 16.8236 31.013C18.1516 31.545 19.5722 31.8075 21.0026 31.7851C23.8338 31.741 26.5341 30.5853 28.5206 28.5676C30.5071 26.5498 31.6205 23.8319 31.6205 21.0003C31.6205 18.1688 30.5071 15.4509 28.5206 13.4331C26.5341 11.4154 23.8338 10.2597 21.0026 10.2155ZM21.0026 13.9981C22.8594 13.9981 24.6401 14.7357 25.953 16.0487C27.2659 17.3616 28.0035 19.1423 28.0035 20.999C28.0035 22.8558 27.2659 24.6365 25.953 25.9494C24.6401 27.2623 22.8594 27.9999 21.0026 27.9999C19.1459 27.9999 17.3652 27.2623 16.0523 25.9494C14.7393 24.6365 14.0017 22.8558 14.0017 20.999C14.0017 19.1423 14.7393 17.3616 16.0523 16.0487C17.3652 14.7357 19.1459 13.9981 21.0026 13.9981Z" fill="black"/>
</g>
<defs>
<clipPath id="clip0_112_67">
<rect width="42" height="42" fill="white" transform="translate(0 -0.000976562)"/>
</clipPath>
</defs>
</svg>
