<svg width="42" height="42" viewBox="0 0 42 42" fill="none" xmlns="http://www.w3.org/2000/svg">
<g clip-path="url(#clip0_112_50)">
<path d="M41.6167 0.382666C41.739 0.504586 41.8359 0.649422 41.9021 0.808878C41.9683 0.968334 42.0023 1.13928 42.0023 1.31192C42.0023 1.48456 41.9683 1.6555 41.9021 1.81495C41.8359 1.97441 41.739 2.11925 41.6167 2.24117L30.7309 13.1244H38.0625C38.4106 13.1244 38.7444 13.2627 38.9906 13.5088C39.2367 13.755 39.375 14.0888 39.375 14.4369C39.375 14.785 39.2367 15.1189 38.9906 15.365C38.7444 15.6111 38.4106 15.7494 38.0625 15.7494H27.5625C27.2144 15.7494 26.8805 15.6111 26.6344 15.365C26.3883 15.1189 26.25 14.785 26.25 14.4369V3.93692C26.25 3.58882 26.3883 3.25498 26.6344 3.00884C26.8805 2.7627 27.2144 2.62442 27.5625 2.62442C27.9106 2.62442 28.2444 2.7627 28.4906 3.00884C28.7367 3.25498 28.875 3.58882 28.875 3.93692V11.2685L39.7582 0.382666C39.8802 0.260438 40.025 0.163463 40.1844 0.0972961C40.3439 0.0311292 40.5148 -0.00292969 40.6875 -0.00292969C40.8601 -0.00292969 41.0311 0.0311292 41.1905 0.0972961C41.35 0.163463 41.4948 0.260438 41.6167 0.382666ZM9.59173 3.48542C9.43677 3.28608 9.24117 3.12199 9.01792 3.00406C8.79466 2.88612 8.54887 2.81704 8.29687 2.8014C8.04487 2.78576 7.79242 2.82392 7.5563 2.91334C7.32018 3.00276 7.10578 3.1414 6.92736 3.32004L4.21311 6.03692C2.94523 7.30742 2.47798 9.10554 3.03186 10.6832C5.33068 17.2131 9.07013 23.1417 13.9729 28.0292C18.8604 32.9318 24.789 36.6713 31.3189 38.9702C32.8965 39.524 34.6946 39.0568 35.9651 37.7889L38.6794 35.0747C38.858 34.8962 38.9966 34.6819 39.0861 34.4457C39.1755 34.2096 39.2136 33.9572 39.198 33.7052C39.1824 33.4532 39.1133 33.2074 38.9953 32.9841C38.8774 32.7609 38.7133 32.5653 38.514 32.4103L32.4581 27.701C32.2451 27.5359 31.9974 27.4212 31.7337 27.3657C31.47 27.3103 31.1971 27.3154 30.9356 27.3808L25.1869 28.8167C24.4195 29.0085 23.6156 28.9983 22.8534 28.7871C22.0911 28.576 21.3965 28.1711 20.8372 27.6118L14.3902 21.1622C13.8305 20.6031 13.4251 19.9087 13.2135 19.1464C13.0019 18.3842 12.9913 17.5801 13.1827 16.8125L14.6212 11.0638C14.6866 10.8023 14.6918 10.5294 14.6363 10.2657C14.5808 10.002 14.4662 9.75426 14.301 9.54129L9.59173 3.48542ZM4.94548 1.34079C5.40485 0.881284 5.95671 0.524759 6.56443 0.29489C7.17214 0.0650208 7.82181 -0.032932 8.47029 0.00753578C9.11876 0.0480035 9.75121 0.225966 10.3256 0.529605C10.9001 0.833245 11.4033 1.25561 11.802 1.76867L16.5112 7.82192C17.3749 8.93229 17.6794 10.3787 17.3381 11.7437L15.9022 17.4924C15.828 17.7902 15.832 18.1021 15.9139 18.3978C15.9957 18.6936 16.1527 18.9631 16.3695 19.1803L22.8191 25.6299C23.0366 25.8471 23.3066 26.0044 23.6028 26.0862C23.8991 26.1681 24.2115 26.1719 24.5096 26.0972L30.2557 24.6613C30.9293 24.4929 31.6324 24.4798 32.3118 24.623C32.9913 24.7663 33.6292 25.0621 34.1775 25.4882L40.2307 30.1974C42.4069 31.8905 42.6064 35.1062 40.6586 37.0513L37.9444 39.7655C36.0019 41.708 33.0986 42.5612 30.3922 41.6083C23.4653 39.171 17.1761 35.2055 11.991 30.0058C6.79162 24.8215 2.82608 18.5331 0.388485 11.6072C-0.561765 8.90342 0.29136 5.99754 2.23386 4.05504L4.94811 1.34079H4.94548Z" fill="black"/>
</g>
<defs>
<clipPath id="clip0_112_50">
<rect width="42" height="42" fill="white" transform="translate(0 -0.000976562)"/>
</clipPath>
</defs>
</svg>
