<svg width="42" height="42" viewBox="0 0 42 42" fill="none" xmlns="http://www.w3.org/2000/svg">
<g clip-path="url(#clip0_112_62)">
<path d="M42 20.999C42 26.5686 39.7875 31.91 35.8492 35.8483C31.911 39.7865 26.5695 41.999 21 41.999C15.4305 41.999 10.089 39.7865 6.15076 35.8483C2.21249 31.91 0 26.5686 0 20.999C0 15.4295 2.21249 10.088 6.15076 6.14978C10.089 2.21152 15.4305 -0.000976562 21 -0.000976562C26.5695 -0.000976562 31.911 2.21152 35.8492 6.14978C39.7875 10.088 42 15.4295 42 20.999ZM21.7534 15.5023C19.7111 16.3528 15.6266 18.1115 9.50513 20.7785C8.51288 21.1723 7.9905 21.5608 7.94325 21.9388C7.8645 22.5766 8.66512 22.8286 9.7545 23.1725L10.2139 23.3169C11.2849 23.666 12.7286 24.0729 13.4767 24.0886C14.1592 24.1044 14.9179 23.8261 15.7552 23.2486C21.4751 19.3873 24.4283 17.4369 24.612 17.3949C24.7433 17.3634 24.927 17.3266 25.0477 17.4369C25.1711 17.5445 25.158 17.7519 25.1449 17.807C25.0661 18.1456 21.924 21.0646 20.2991 22.5766C19.7925 23.0491 19.4329 23.3825 19.3594 23.4586C19.1975 23.6241 19.033 23.7868 18.8659 23.9469C17.8684 24.9076 17.1229 25.6269 18.9053 26.8029C19.7636 27.3699 20.4514 27.8345 21.1365 28.3018C21.882 28.811 22.6275 29.3176 23.5935 29.9529C23.8376 30.1104 24.0739 30.281 24.3023 30.4438C25.1711 31.0633 25.956 31.6198 26.9194 31.5305C27.4811 31.478 28.0613 30.953 28.3552 29.378C29.0509 25.6584 30.4185 17.6023 30.7335 14.2816C30.7527 14.0056 30.7413 13.7283 30.6994 13.4548C30.6747 13.2341 30.5678 13.0307 30.4001 12.8851C30.1613 12.7203 29.8765 12.6349 29.5864 12.641C28.7989 12.6541 27.5835 13.0768 21.7534 15.5023Z" fill="black"/>
</g>
<defs>
<clipPath id="clip0_112_62">
<rect width="42" height="42" fill="white" transform="translate(0 -0.000976562)"/>
</clipPath>
</defs>
</svg>
